<?xml version="1.0" encoding="iso-8859-1"?>
<!-- Generator: Adobe Illustrator 19.0.0, SVG Export Plug-In . SVG Version: 6.00 Build 0)  -->
<svg version="1.1" id="Capa_1" xmlns="http://www.w3.org/2000/svg" xmlns:xlink="http://www.w3.org/1999/xlink" x="0px" y="0px"
	 viewBox="0 0 512 512" style="enable-background:new 0 0 512 512;" xml:space="preserve">
<path style="fill:#521E0B;" d="M96.609,511.028c-9.876-3.291-15.214-13.965-11.923-23.842l28.068-84.24L29.523,388.33
	c-10.288-1.588-17.341-11.215-15.755-21.504c1.588-10.288,11.198-17.343,21.503-15.755l105.296,18.022
	c11.514,1.777,18.703,13.503,15.008,24.588L120.45,499.104C117.162,508.979,106.487,514.319,96.609,511.028z"/>
<path style="fill:#3C5A73;" d="M29.523,388.33l83.229,14.616l27.815-33.854L35.273,351.071
	c-10.306-1.589-19.916,5.467-21.503,15.755C12.182,377.115,19.236,386.742,29.523,388.33z"/>
<path style="fill:#692810;" d="M27.132,508.668c-8.574-5.906-10.737-17.643-4.831-26.215l46.05-66.856l-46.236-30.099
	c-8.725-5.679-11.194-17.357-5.513-26.081c5.678-8.725,17.357-11.195,26.08-5.514l62.451,40.655
	c8.912,5.802,11.234,17.789,5.24,26.49l-57.025,82.79C47.444,512.409,35.706,514.574,27.132,508.668z"/>
<path style="fill:#55879B;" d="M22.114,385.497l45.547,29.651l37.47-20.591L42.68,353.902c-8.724-5.68-20.402-3.211-26.08,5.514
	C10.921,368.14,13.39,379.818,22.114,385.497z"/>
<circle style="fill:#FF640A;" cx="211.408" cy="164.985" r="38.073"/>
<path style="fill:#CD5014;" d="M173.338,164.988c0-0.91,0.043-1.809,0.106-2.704h15.505c-0.557-7.363-3.36-14.237-8.138-19.947
	c1.09-1.47,2.283-2.858,3.569-4.155l0.055,0.063c5.838,6.706,9.346,15.211,9.931,24.039h14.338v-35.26
	c0.894-0.063,1.793-0.106,2.703-0.106s1.81,0.044,2.704,0.106v35.26h14.337c0.586-8.828,4.094-17.334,9.931-24.039l0.055-0.063
	c1.286,1.296,2.479,2.685,3.569,4.155c-4.778,5.712-7.583,12.585-8.138,19.948h15.505c0.063,0.894,0.106,1.794,0.106,2.704
	s-0.043,1.809-0.106,2.704h-15.505c0.557,7.363,3.36,14.237,8.138,19.947c-1.09,1.47-2.283,2.858-3.569,4.155l-0.055-0.064
	c-5.837-6.705-9.344-15.21-9.931-24.038h-14.337v35.26c-0.894,0.063-1.794,0.106-2.704,0.106s-1.809-0.043-2.703-0.106v-35.26
	h-14.338c-0.586,8.828-4.094,17.334-9.931,24.038l-0.055,0.063c-1.285-1.296-2.479-2.685-3.569-4.155
	c4.778-5.71,7.583-12.584,8.138-19.947h-15.505C173.381,166.797,173.338,165.898,173.338,164.988z"/>
<path style="fill:#FA2D14;" d="M13.847,365.713l79.727,21.319l39.561-115.499c3.45-10.071-1.918-21.032-11.989-24.481l-41.42-14.187
	c-10.071-3.45-21.032,1.918-24.481,11.989L13.847,365.713z"/>
<g>
	<circle style="fill:#692810;" cx="127.073" cy="199.034" r="32.216"/>
	<path style="fill:#692810;" d="M231.754,192.084c-0.253,1.917-0.826,3.824-1.743,5.649l-31.888,63.491
		c-2.673,5.322-7.832,8.952-13.743,9.672l-85.973,10.46c-9.75,1.186-18.615-5.756-19.801-15.505
		c-1.192-9.749,5.756-18.615,15.505-19.801l76.508-9.308l27.609-54.97c4.408-8.777,15.096-12.318,23.873-7.91
		C229.054,177.352,232.72,184.784,231.754,192.084z"/>
</g>
<path style="fill:#3C5A73;" d="M498.454,67.546c0,9.268-7.513,16.782-16.782,16.782h-79.436c-9.268,0-16.783-7.513-16.783-16.782
	s7.513-16.782,16.783-16.782h79.436C490.941,50.763,498.454,58.276,498.454,67.546z"/>
<path style="fill:#B4D7DC;" d="M350.858,50.763c-8.084,0-14.115,7.481-12.385,15.388l16.827,76.883
	c1.273,5.82,6.427,9.967,12.385,9.967c0.772,0,46.99,0,44.485,0c5.958,0,11.111-4.148,12.385-9.967l16.827-76.883
	c1.728-7.897-4.291-15.388-12.385-15.388C427.356,50.763,346.106,50.763,350.858,50.763z"/>
<path style="fill:#55879B;" d="M481.672,512c-9.268,0-16.783-7.513-16.783-16.782V16.782C464.889,7.513,472.404,0,481.672,0
	c9.268,0,16.782,7.513,16.782,16.782v478.435C498.454,504.486,490.941,512,481.672,512z"/>
<g>
</g>
<g>
</g>
<g>
</g>
<g>
</g>
<g>
</g>
<g>
</g>
<g>
</g>
<g>
</g>
<g>
</g>
<g>
</g>
<g>
</g>
<g>
</g>
<g>
</g>
<g>
</g>
<g>
</g>
</svg>
