<?xml version="1.0" encoding="iso-8859-1"?>
<!-- Generator: Adobe Illustrator 19.0.0, SVG Export Plug-In . SVG Version: 6.00 Build 0)  -->
<svg version="1.1" id="Capa_1" xmlns="http://www.w3.org/2000/svg" xmlns:xlink="http://www.w3.org/1999/xlink" x="0px" y="0px"
	 viewBox="0 0 512.286 512.286" style="enable-background:new 0 0 512.286 512.286;" xml:space="preserve">
<g transform="translate(-1 -1)">
	<g>
		<path style="fill:#CBB292;" d="M186.544,433.684l-8.827,53.12h-17.653l-8.831-53.12V63.08c0-4.875,3.952-8.828,8.828-8.828h17.655
			c4.875,0,8.828,3.952,8.828,8.828V433.684z"/>
		<path style="fill:#CBB292;" d="M274.82,433.684l-8.828,53.12H248.34l-8.831-53.12V63.08c0-4.875,3.952-8.828,8.828-8.828h17.655
			c4.875,0,8.828,3.952,8.828,8.828V433.684z"/>
		<path style="fill:#CBB292;" d="M363.096,433.684l-8.828,44.292h-17.655l-8.828-44.292V63.08c0-4.875,3.952-8.828,8.828-8.828
			h17.655c4.875,0,8.828,3.952,8.828,8.828V433.684z"/>
	</g>
	<path id="SVGCleanerId_0" style="fill:#7F6E5D;" d="M327.786,433.684l9.091,72.761c0.982,3.93,4.513,6.687,8.564,6.687
		c4.051,0,7.582-2.757,8.564-6.687l9.091-72.761H327.786z"/>
	<path style="fill:#7F6E5D;" d="M186.544,433.684l-9.092,72.739c-0.982,3.93-4.512,6.687-8.563,6.687s-7.581-2.757-8.563-6.687
		l-7.239-72.585"/>
	<path style="fill:#CB8252;" d="M485.8,53.546l-81.214,81.126c-2.119,2.119-4.237,4.237-6.179,6.268h-0.088
		c-4.237,4.414-8.298,8.739-12.006,12.8c-46.698,50.935-56.585,80.772-56.585,80.772v0.088l-10.812,13.859l-52.923-52.951
		l13.771-10.872v-0.088c0,0,29.837-9.887,80.772-56.585c4.061-3.708,8.386-7.768,12.8-12.094c2.03-1.942,4.149-4.061,6.268-6.179
		l81.214-81.126l8.042-9.622l26.65,26.483L485.8,53.546z"/>
	<g>
		<path style="fill:#805333;" d="M398.318,140.939c-4.237,4.414-8.298,8.739-12.006,12.8c-0.177-0.088-0.265-0.265-0.441-0.353
			l-24.982-24.982c-0.088-0.177-0.265-0.265-0.353-0.441c4.061-3.708,8.386-7.768,12.8-12.094l0.088,0.088L398.318,140.939z"/>
		<path style="fill:#805333;" d="M510.693,41.011l-12.447,12.535c-1.649,1.653-3.888,2.582-6.223,2.582
			c-2.335,0-4.574-0.929-6.223-2.582l-24.982-24.982c-3.443-3.469-3.443-9.066,0-12.535l12.447-12.447
			c3.469-3.443,9.066-3.443,12.535,0l6.179,6.268l6.268,6.179l6.268,6.268l6.179,6.268c1.653,1.649,2.582,3.888,2.582,6.223
			C513.275,37.123,512.346,39.362,510.693,41.011L510.693,41.011z"/>
	</g>
	<path id="SVGCleanerId_1" style="fill:#7F6E5D;" d="M239.51,433.684l9.091,72.761c0.982,3.93,4.513,6.687,8.564,6.687
		s7.582-2.757,8.564-6.687l9.091-72.761H239.51z"/>
	<g>
		<path id="SVGCleanerId_0_1_" style="fill:#7F6E5D;" d="M327.786,433.684l9.091,72.761c0.982,3.93,4.513,6.687,8.564,6.687
			c4.051,0,7.582-2.757,8.564-6.687l9.091-72.761H327.786z"/>
	</g>
	<path style="fill:#FAC176;" d="M335.907,265.695l-8.121,8.121L186.544,415.058l-12.182,12.182l-6.444,6.444l-49.611,49.611
		L98.71,502.891c-6.593,6.652-15.572,10.395-24.938,10.395s-18.344-3.742-24.938-10.395l-37.429-37.428
		c-6.652-6.594-10.394-15.572-10.394-24.938c0-9.366,3.742-18.344,10.394-24.938L248.602,178.39c3.278-3.345,7.764-5.23,12.447-5.23
		s9.169,1.885,12.447,5.23l54.29,54.29l1.942,1.942l6.179,6.179c3.345,3.277,5.231,7.764,5.231,12.447
		C341.138,257.931,339.252,262.417,335.907,265.695z"/>
	<g>
		<path style="fill:#F18D46;" d="M323.46,228.244l-87.217,62.323L73.816,452.994c-3.481,3.413-9.054,3.413-12.535,0
			c-1.653-1.649-2.582-3.888-2.582-6.223c0-2.335,0.929-4.574,2.582-6.223l162.251-162.251l62.499-87.481L323.46,228.244z"/>
		<path style="fill:#F18D46;" d="M192.371,321.905l-0.794,0.794"/>
	</g>
	<g>
		<path id="SVGCleanerId_1_1_" style="fill:#7F6E5D;" d="M239.51,433.684l9.091,72.761c0.982,3.93,4.513,6.687,8.564,6.687
			s7.582-2.757,8.564-6.687l9.091-72.761H239.51z"/>
	</g>
	<path style="fill:#7F6E5D;" d="M151.234,36.438h211.862c9.751,0,17.655,7.904,17.655,17.655v0c0,9.751-7.905,17.655-17.655,17.655
		H151.234c-9.751,0-17.655-7.904-17.655-17.655v0C133.579,44.343,141.483,36.438,151.234,36.438z"/>
</g>
<g>
</g>
<g>
</g>
<g>
</g>
<g>
</g>
<g>
</g>
<g>
</g>
<g>
</g>
<g>
</g>
<g>
</g>
<g>
</g>
<g>
</g>
<g>
</g>
<g>
</g>
<g>
</g>
<g>
</g>
</svg>
